<?xml version="1.0" encoding="UTF-8" standalone="no"?>
<!-- Created with Inkscape (http://www.inkscape.org/) -->

<svg
   version="1.1"
   id="svg2"
   width="350.00006"
   height="271.06726"
   viewBox="0 0 350.00006 271.06726"
   sodipodi:docname="tikitala-dot-com.svg"
   inkscape:version="1.2 (dc2aedaf03, 2022-05-15)"
   xmlns:inkscape="http://www.inkscape.org/namespaces/inkscape"
   xmlns:sodipodi="http://sodipodi.sourceforge.net/DTD/sodipodi-0.dtd"
   xmlns="http://www.w3.org/2000/svg"
   xmlns:svg="http://www.w3.org/2000/svg">
  <defs
     id="defs6" />
  <sodipodi:namedview
     id="namedview4"
     pagecolor="#505050"
     bordercolor="#ffffff"
     borderopacity="1"
     inkscape:showpageshadow="0"
     inkscape:pageopacity="0"
     inkscape:pagecheckerboard="1"
     inkscape:deskcolor="#505050"
     showgrid="false"
     inkscape:zoom="2.3447661"
     inkscape:cx="138.81982"
     inkscape:cy="127.94453"
     inkscape:window-width="1920"
     inkscape:window-height="1009"
     inkscape:window-x="-8"
     inkscape:window-y="-8"
     inkscape:window-maximized="1"
     inkscape:current-layer="g8" />
  <g
     inkscape:groupmode="layer"
     inkscape:label="Image"
     id="g8"
     transform="translate(-88,-101.93273)">
    <path
       style="fill:#000000"
       d="m 125,370 v -3 h 8 8 V 304.5 242 h 7.5 7.5 v 3 3 h -4 -4 V 310.5 373 H 136.5 125 Z m 51,0.0438 v -2.95619 l 7.2254,-0.29381 7.22539,-0.29381 0.65771,-4 c 0.36174,-2.2 1.20679,-7.9375 1.87789,-12.75 l 1.22019,-8.75 h 14.20544 14.20545 l 1.27284,9.25 c 0.70007,5.0875 1.50992,10.2625 1.79968,11.5 l 0.52683,2.25 h -3.0631 -3.06309 l -0.56331,-3.25 c -0.30982,-1.7875 -0.89891,-5.725 -1.30909,-8.75 l -0.74578,-5.5 H 208.98623 200.5 l -1.91308,13.25 -1.91309,13.25 H 186.33692 176 Z m 56.60699,1.3744 C 232.27314,370.54823 232,369.21512 232,368.45574 v -1.38069 l 8.77747,-0.28752 8.77748,-0.28753 -8.71506,-54.5 c -4.79329,-29.975 -8.98854,-55.9625 -9.32279,-57.75 L 230.90937,251 H 233.45469 236 v -70 -70 h 3 3 v 73 73 h -2.56739 -2.56739 l 0.5097,1.75 c 0.28033,0.9625 4.02316,23.8 8.31739,50.75 l 7.80769,49 0.25869,-53.75 0.25868,-53.75 H 257.00869 260 v 56.5 56.5 h -2.96862 -2.96861 l 0.38208,1.25 c 0.21015,0.6875 0.63477,2.7125 0.94362,4.5 L 255.95,373 h -11.36801 -11.36801 l -0.60699,-1.58179 z M 266,370 v -3 h 27.5 27.5 v -9.00445 -9.00446 L 329,299 c 4.4,-27.4951 8,-50.2181 8,-50.49555 C 337,248.227 335.875,248 334.5,248 H 332 l -0.0689,-65.75 -0.069,-65.75 -14.43105,29.4004 C 309.49397,162.07063 303,175.7284 303,176.251 c 0,0.52261 6.975,18.6275 15.5,40.23308 8.525,21.60558 15.5,39.56031 15.5,39.8994 C 334,256.72257 328.81386,257 322.47525,257 H 310.9505 l -0.97525,-2.5651 c -0.53639,-1.4108 -0.97525,-2.7608 -0.97525,-3 0,-0.23919 4.275,-0.4349 9.5,-0.4349 5.225,0 9.5,-0.1931 9.5,-0.42911 0,-0.23601 -6.975,-18.10073 -15.5,-39.69938 -8.525,-21.59865 -15.5,-39.8602 -15.5,-40.58122 0,-0.72102 6.37156,-14.35629 14.15902,-30.30061 L 325.31803,111 H 328.65902 332 v -4.5 -4.5 h 11.5 11.5 v 1.5 1.5 h -8 -8 v 73 73 h 2 2 v 1.02766 c 0,0.56521 -4.08778,26.54012 -9.08395,57.72202 l -9.08396,56.69435 1.08396,0.36132 L 327,367.16667 V 370.08333 373 H 296.5 266 Z m 65.36971,0.75 c 0.33164,-1.2375 0.60913,-2.5875 0.61664,-3 L 332,367 h 7 c 3.85,0 7,-0.2838 7,-0.63067 0,-1.00688 3.01643,-20.64016 3.55202,-23.11933 L 350.0381,341 h 13.93564 13.93563 l 0.54618,3.25 c 1.35604,8.06908 2.52998,16.39855 2.5369,18 L 381,364 h -2.43261 -2.43261 l -0.49434,-1.75 c -0.27189,-0.9625 -0.7763,-3.775 -1.12092,-6.25 -0.34462,-2.475 -0.86324,-5.7375 -1.1525,-7.25 L 372.84109,346 H 364.42054 356 l -0.004,0.75 c -0.004,0.73783 -2.44624,16.64319 -3.53167,23 l -0.55494,3.25 h -10.57131 -10.57132 l 0.60297,-2.25 z m 56.41698,-0.75 -0.4403,-3 h 8.8268 c 4.85475,0 8.82681,-0.23692 8.82681,-0.52649 0,-0.28956 -4.95,-31.4295 -11,-69.19985 -6.05,-37.77036 -11,-69.03344 -11,-69.47352 L 383,227 h 2.45469 2.45468 l 0.57333,3.25 C 389.93451,238.47986 411,371.0657 411,371.97351 V 373 H 399.6135 388.227 Z M 112,306 v -58 h -5.5 -5.5 v -3 -3 h 8.5 8.5 v 61 61 h -3 -3 z m 51,57.49555 C 163,362.62908 178.98547,262.65131 179.5879,259.75 L 180.15891,257 H 171.07946 162 v -3 -3 h 8.5 8.5 V 188.5 126 h 12 12 v -7.5 -7.5 h 1.5 1.5 v -4.5 -4.5 h 11.5 11.5 v 1.5 1.5 h -8 -8 v 57.96502 57.96501 L 202.76171,221.21502 192.52343,221.5 184.9207,269 c -4.1815,26.125 -9.31126,58.1875 -11.39946,71.25 L 169.72451,364 h -3.36225 C 164.51301,364 163,363.773 163,363.49555 Z M 196.06955,218 H 206 V 175 132 H 195.5 185 l 0.13618,45.25 c 0.0749,24.8875 0.3312,44.2375 0.56955,43 L 186.1391,218 Z M 283,286.5 V 227 h 3 3 v 57.97012 57.97013 l 12.6682,0.27987 12.66821,0.27988 0.41513,1.25 0.41513,1.25 H 299.08333 283 Z m -85.13343,34.03324 c -0.47389,-0.4739 9.75021,-70.48335 10.38619,-71.11934 0.30717,-0.30716 10.84414,68.96435 10.77496,70.8361 L 219,321 h -10.33333 c -5.68334,0 -10.54338,-0.21004 -10.8001,-0.46676 z M 212.63419,315.25 c -0.2886,-1.5125 -1.01956,-6.125 -1.62436,-10.25 -0.60479,-4.125 -1.3728,-8.625 -1.70667,-10 l -0.60704,-2.5 -1.78331,11 c -0.98082,6.05 -1.81245,11.7875 -1.84806,12.75 L 205,318 h 4.07946 4.07945 z m 140.39512,4.5 c 0.0161,-0.6875 2.41704,-17 5.33537,-36.25 l 5.30607,-35 0.63799,3 c 0.35089,1.65 2.68804,16.95 5.19365,34 2.50562,17.05 4.77618,32.0125 5.04569,33.25 L 375.0381,321 H 364.01905 353 l 0.0293,-1.25 z m 14.91664,-5 c -0.0297,-1.7875 -0.84272,-7.975 -1.80663,-13.75 l -1.75258,-10.5 -1.30143,9 c -0.71579,4.95 -1.64205,10.89826 -2.05836,13.21835 C 360.13086,317.71236 360.32908,318 364.66667,318 H 368 l -0.0541,-3.25 z M 430.75,297.2992 429,296.85335 l 0.0153,-2.17667 c 0.008,-1.19718 0.40811,-2.79683 0.8882,-3.5548 l 0.87288,-1.37811 1.11181,0.68713 1.1118,0.68713 v -1.58207 -1.58207 l 2.5,1.63807 2.5,1.63806 -0.0153,1.63499 c -0.0317,3.37896 -3.3628,5.42065 -7.23469,4.43419 z m -25.5,-14.96148 -1.25,-0.50439 v -3.97568 -3.97568 l -0.94983,0.58702 -0.94982,0.58703 -1.05018,-1.96227 L 400,271.13148 v -9.04006 -9.04006 l 2.95034,-1.52568 C 406.82172,249.52371 407,249.56661 407,252.5 v 2.5 h 1 1 v 8.5 c 0,8.79468 0.35612,9.71641 2.60795,6.75 l 1.32844,-1.75 0.0318,3.21474 0.0318,3.21473 5.23634,-0.56493 5.23634,-0.56493 2.79827,-1.99254 2.79826,-1.99254 -0.2846,-8.55412 -0.28461,-8.55412 1.16602,-0.40849 1.16602,-0.40848 0.46798,1.80534 0.46798,1.80534 0.116,-2.75 0.116,-2.75 h 0.88337 c 0.48585,0 1.18707,1.0125 1.55827,2.25 l 0.67491,2.25 0.77609,-1.95319 0.77608,-1.95319 0.66564,3.32819 c 0.3661,1.8305 0.66564,7.1235 0.66564,11.76221 v 8.43401 l -1,-0.61803 -1,-0.61803 v 2.52383 2.52383 l -1.93426,1.03519 C 431.46567,280.35633 431,280.27549 431,278.43261 v -1.56739 l -2.25,0.69859 c -1.2375,0.38422 -3.375,1.47609 -4.75,2.42638 l -2.5,1.7278 -5.40684,0.69625 -5.40684,0.69626 -0.91929,-1.30525 -0.91929,-1.30525 -0.5072,1.25 c -0.53349,1.31478 -1.04679,1.41239 -3.09054,0.58772 z M 415.232,268 v -3.5 l 0.45733,1.75 c 0.25152,0.9625 0.25152,2.5375 0,3.5 l -0.45733,1.75 z m 3.10421,-7 v -7.5 l 0.39226,3.75 c 0.21574,2.0625 0.21574,5.4375 0,7.5 l -0.39226,3.75 z m 3,-2 v -7.5 l 0.39226,3.75 c 0.21574,2.0625 0.21574,5.4375 0,7.5 l -0.39226,3.75 z M 246,175 v -73 h 11.5 11.5 v 1.5 1.5 h -8.5 -8.5 v 71.5 71.5 h -3 -3 z m 44.9739,54 c -4.00767,-10.45 -7.64278,-19 -8.07802,-19 h -0.79136 l -0.30226,5.25 -0.30226,5.25 -3.25,0.31336 -3.25,0.31336 v -7.16713 -7.16712 l 3.68494,-7.01245 3.68493,-7.01245 0.69928,1.86622 c 0.38461,1.02641 5.02639,13.16909 10.31507,26.98373 C 298.6729,235.43216 303,247.01966 303,247.36752 303,247.71538 301.93363,248 300.63028,248 h -2.36972 z m 113.03119,15.75 c -0.8118,-1.2375 -2.04504,-3.53916 -2.74054,-5.11481 L 400,236.77038 v -8.8034 c 0,-4.84187 0.27215,-9.51262 0.60478,-10.37945 l 0.60479,-1.57604 0.90228,0.55764 0.90228,0.55763 0.59772,-1.55763 0.59772,-1.55764 0.86585,0.53512 0.86584,0.53512 2.97971,-1.54086 L 411.90068,212 H 414.95034 418 v 1.2 1.2 l 1.2,-1.2 1.2,-1.2 h 3.25295 c 3.80629,0 8.34042,1.8492 8.36236,3.41052 l 0.0153,1.08948 0.94304,-1.49164 0.94305,-1.49164 0.90516,0.99164 c 0.49784,0.5454 1.41658,2.52129 2.04164,4.39086 l 1.13648,3.39923 v 8.38216 8.38216 l -1.6112,0.61828 -1.6112,0.61827 -1.34966,3.10034 c -0.74231,1.70519 -1.36727,2.53784 -1.3888,1.85034 C 432.01761,244.5625 431.55,244 431,244 h -1 l -0.079,1.75 -0.0789,1.75 -0.50647,-1.25623 -0.50646,-1.25623 -1.10182,0.68096 c -0.606,0.37453 -3.71766,0.71483 -6.91481,0.75623 l -5.81299,0.0753 2.2e-4,-0.7428 2.2e-4,-0.7428 -4,0.15673 -4,0.15674 v 0.83606 c 0,1.55973 -1.51267,0.84558 -2.99491,-1.41393 z M 427.8,237.8 429,236.6 v -6.77695 -6.77694 l -2.54534,-1.66777 -2.54533,-1.66777 -2.20467,1.06125 c -1.21256,0.58368 -3.21716,1.28168 -4.45466,1.55109 L 415,222.81276 V 221.40638 220 h -2.5 -2.5 l -0.0517,1.25 c -0.0284,0.6875 -0.22562,4.7375 -0.43825,9 l -0.3866,7.75 h 0.93826 C 410.57779,238 411,237.59213 411,237.09362 v -0.90638 l 2,0.52301 2,0.52301 0.1681,-3.86663 0.16811,-3.86663 0.39226,3.75 0.39226,3.75 h 0.88214 0.88213 l 0.38279,-4.25 0.3828,-4.25 0.1747,4.68358 0.17471,4.68358 2.75,0.41659 c 1.5125,0.22912 3.2225,0.48401 3.8,0.56642 0.5775,0.0824 1.59,-0.39017 2.25,-1.05017 z m -15.54782,-11.3 0.0202,-4 0.4349,2.26166 c 0.23919,1.24391 0.23011,3.04391 -0.0202,4 L 412.232,230.5 l 0.0202,-4 z M 88,228.5 V 218 h 30.5 30.5 v -43 -43 h -5.5 -5.5 v -3 -3 h 9 9 V 173.5 221 H 125 94 v 9 9 H 91 88 Z M 362,166 v -55 h 3 3 v 53.5 53.5 h 4 4 v 1.5 1.5 h -7 -7 z m 42,39.66667 c 0,-1.28334 -0.2961,-2.62943 -0.65799,-2.99133 l -0.65799,-0.65799 -1.34201,1.11377 L 400,204.24489 v -4.06343 -4.06343 L 401,195.5 c 0.55,-0.33992 1,-1.38163 1,-2.31491 v -1.69687 l 3.25,-1.3096 c 1.7875,-0.72029 4.0375,-1.73395 5,-2.25259 l 1.75,-0.94298 v 1.00848 c 0,1.7191 2.16835,1.11411 4.44978,-1.24153 1.19851,-1.2375 3.05011,-2.76654 4.11467,-3.39787 l 1.93555,-1.14786 -2.91703,-1.14089 -2.91703,-1.14089 L 416,181 l -0.66594,1.07751 -2.85582,-1.08578 c -1.5707,-0.59718 -3.52541,-2.04176 -4.34381,-3.21019 l -1.48799,-2.1244 -0.76494,1.92143 -0.76495,1.92143 -0.69599,-2.33062 -0.69599,-2.33062 -1.86228,0.487 -1.86229,0.487 v -3.41995 -3.41995 l 1.25,-2.23643 c 1.67193,-2.99133 3.6013,-4.12198 7.5,-4.39515 L 412,162.11356 V 163.05678 164 h 2 2 l 0.079,-1.75 0.0789,-1.75 0.50439,1.25 c 0.7253,1.79747 2.33772,1.54058 2.33772,-0.37244 v -1.62245 l 1.55328,1.28911 1.55329,1.28911 4.69671,-0.0154 4.69672,-0.0154 0.73469,1.09874 0.73468,1.09875 0.0153,-1.25 c 0.0205,-1.67334 1.82465,-1.58351 3.58674,0.17857 l 1.42857,1.42857 v 2.57143 2.57143 h -1 c -0.55,0 -1.02852,-0.5625 -1.06339,-1.25 l -0.0634,-1.25 -0.90439,2.25 C 434.06178,172.00665 432,172.87474 432,171 c 0,-1.97225 -1.86986,-0.95348 -2.29427,1.25 l -0.43337,2.25 -0.13618,-2.65638 -0.13618,-2.65638 -2,0.52301 c -1.1,0.28766 -2,0.92053 -2,1.40638 C 425,171.60248 424.325,172 423.5,172 H 422 v -1.56739 -1.56739 l -2.25,0.68978 c -1.2375,0.37938 -2.85613,1.17601 -3.59695,1.77029 l -1.34695,1.08052 1.84695,0.6606 1.84695,0.66061 0.67839,-1.05666 0.67838,-1.05665 2.57162,1.17171 2.57161,1.1717 V 175.47856 177 h 1.5 c 0.825,0 1.5,-0.4355 1.5,-0.96778 v -0.96777 l 2.23023,0.82501 2.23023,0.82502 0.67009,2.39276 c 0.36855,1.31602 0.71495,3.61614 0.76977,5.11138 l 0.0997,2.71861 -1.5,-0.5756 -1.5,-0.57561 -0.0153,1.85699 -0.0153,1.85699 -0.93089,-1.47197 -0.93089,-1.47198 -0.67498,1.75896 c -0.37123,0.96743 -1.93517,2.41063 -3.47541,3.20712 l -2.80044,1.44816 -0.43065,-1.23514 -0.43066,-1.23515 -2.78409,2.75 c -1.53125,1.5125 -3.39772,2.75 -4.14772,2.75 -0.75,0 -1.36364,0.45 -1.36364,1 0,0.55 0.675,1 1.5,1 h 1.5 v -1.10699 -1.10699 l 1.5,0.57561 1.5,0.5756 v -1.10454 -1.10454 l 4.40533,0.60382 4.40533,0.60382 0.55682,-1.45104 0.55681,-1.45103 1.45829,0.55959 1.45828,0.5596 0.44339,-2.32646 0.44339,-2.32645 0.13618,3.35841 0.13618,3.35841 2.5,-0.62746 2.5,-0.62746 v 1.81968 c 0,1.00083 -0.56235,3.0113 -1.24967,4.46771 l -1.24966,2.64803 -1.87274,0.48973 c -1.03,0.26935 -4.06765,0.22977 -6.75033,-0.0879 L 422,203.72142 V 204.86071 206 h -2.5 -2.5 v -0.7992 -0.7992 l -3.75,0.42836 -3.75,0.42836 -0.69865,1.09677 -0.69865,1.09677 -0.98796,-2.47593 -0.98797,-2.47593 -0.0634,2.75 L 406,208 h -1 -1 z M 435.232,191 v -3.5 l 0.45733,1.75 c 0.25152,0.9625 0.25152,2.5375 0,3.5 L 435.232,194.5 Z M 275,139.2 V 111 h 3.47097 3.47098 l 0.27902,12.87084 0.27903,12.87085 8.04547,-17.12085 8.04546,-17.12084 11.29908,-0.28364 11.29908,-0.28363 -0.4248,1.28363 -0.4248,1.28364 -7.54665,0.28985 -7.54666,0.28985 -14.23153,30.21015 C 283.1873,151.90543 276.38191,165.9275 275.89156,166.45 L 275,167.4 Z M 125.66667,122.33333 C 125.3,121.96667 125,117.24167 125,111.83333 V 102 h 35.5 35.5 v 1.5 1.5 h -32 -32 v 9 9 h -2.83333 c -1.55834,0 -3.13334,-0.3 -3.5,-0.66667 z"
       id="path798" />
  </g>
</svg>
